<svg xmlns="http://www.w3.org/2000/svg" version="1.1" xmlns:xlink="http://www.w3.org/1999/xlink" xmlns:svgjs="http://svgjs.com/svgjs" width="1440" height="560" preserveAspectRatio="none" viewBox="0 0 1440 560"><g mask="url(&quot;#SvgjsMask1000&quot;)" fill="none"><rect width="1440" height="560" x="0" y="0" fill="#0e2a47"></rect><path d="M720 688.65C832.17 688.03 951.54 670.05 1027.46 587.46 1101.34 507.12 1094.07 389.14 1095.7 280 1097.37 168.38 1111.34 46.28 1036.74-36.74 959.73-122.49 835.26-138.2 720-138.23 604.71-138.27 487.64-115.28 403.05-36.95 315.47 44.11 267.09 160.66 268.24 280 269.4 398.25 321.45 511.54 409.14 590.86 492.88 666.61 607.09 689.26 720 688.65" fill="#1c538e"></path><path d="M720 544.42C792.58 544.02 869.82 532.38 918.95 478.95 966.75 426.96 962.04 350.62 963.1 280 964.18 207.77 973.22 128.77 924.95 75.05 875.12 19.56 794.58 9.4 720 9.38 645.4 9.36 569.65 24.23 514.92 74.92 458.24 127.36 426.94 202.78 427.69 280 428.43 356.52 462.12 429.82 518.85 481.15 573.04 530.16 646.94 544.81 720 544.42" fill="#2774c6"></path><path d="M720 400.19C752.99 400.01 788.1 394.72 810.43 370.43 832.16 346.8 830.02 312.1 830.5 280 830.99 247.17 835.1 211.26 813.16 186.84 790.51 161.62 753.9 157 720 156.99 686.09 156.98 651.66 163.74 626.78 186.78 601.02 210.62 586.79 244.9 587.13 280 587.47 314.78 602.78 348.1 628.57 371.43 653.2 393.71 686.79 400.37 720 400.19" fill="#488fdb"></path></g><defs><mask id="SvgjsMask1000"><rect width="1440" height="560" fill="#ffffff"></rect></mask></defs></svg>